<svg xmlns="http://www.w3.org/2000/svg" viewBox="0 0 1600 900" width="1600" height="900">
  <defs>
    <linearGradient id="sky" x1="0" y1="0" x2="0" y2="1">
      <stop offset="0%" stop-color="#2f6f9e"/>
      <stop offset="55%" stop-color="#b3d3e8"/>
      <stop offset="100%" stop-color="#ecdcc2"/>
    </linearGradient>
    <linearGradient id="snow" x1="0" y1="0" x2="0" y2="1">
      <stop offset="0%" stop-color="#ffffff"/>
      <stop offset="60%" stop-color="#dfe8f2"/>
      <stop offset="100%" stop-color="#a9bccf"/>
    </linearGradient>
    <linearGradient id="hill" x1="0" y1="0" x2="0" y2="1">
      <stop offset="0%" stop-color="#6d8f57"/>
      <stop offset="100%" stop-color="#3d5a35"/>
    </linearGradient>
    <linearGradient id="road" x1="0" y1="0" x2="0" y2="1">
      <stop offset="0%" stop-color="#b2a894"/>
      <stop offset="100%" stop-color="#8b8272"/>
    </linearGradient>
    <radialGradient id="haze" cx="0.72" cy="0.22" r="0.5">
      <stop offset="0%" stop-color="#fff6de" stop-opacity="0.75"/>
      <stop offset="100%" stop-color="#fff6de" stop-opacity="0"/>
    </radialGradient>
  </defs>

  <rect width="1600" height="900" fill="url(#sky)"/>
  <rect width="1600" height="900" fill="url(#haze)"/>

  <g opacity="0.85">
    <ellipse cx="376" cy="150" rx="150" ry="34" fill="#ffffff" opacity="0.55"/>
    <ellipse cx="1108" cy="112" rx="196" ry="28" fill="#ffffff" opacity="0.4"/>
  </g>

  <path d="M-80,900 L-80,350.2 L-60,317.1 L-40,294.4 L-20,284.0 L0,286.1 L20,298.5 L40,308.7 L60,290.5 L80,280.2 L100,280.2 L120,291.4 L140,312.6 L160,340.9 L180,357.2 L200,347.3 L220,341.8 L240,343.0 L260,351.8 L280,367.3 L300,386.9 L320,386.3 L340,365.0 L360,348.5 L380,340.0 L400,340.9 L420,350.8 L440,367.3 L460,361.0 L480,343.9 L500,335.8 L520,339.4 L540,355.3 L560,382.2 L580,416.8 L600,423.0 L620,424.6 L640,434.3 L660,453.7 L680,482.4 L700,518.0 L720,556.7 L740,556.4 L760,553.4 L780,554.5 L800,561.4 L820,573.9 L840,590.3 L860,605.3 L880,578.5 L900,553.4 L920,533.9 L940,522.2 L960,518.9 L980,522.3 L1000,522.0 L1020,489.9 L1040,464.3 L1060,448.5 L1080,444.2 L1100,451.0 L1120,466.5 L1140,473.1 L1160,454.7 L1180,442.7 L1200,439.6 L1220,445.9 L1240,460.2 L1260,479.6 L1280,480.2 L1300,458.3 L1320,439.9 L1340,427.5 L1360,421.9 L1380,422.3 L1400,426.2 L1420,405.0 L1440,368.5 L1460,337.6 L1480,315.6 L1500,303.8 L1520,301.6 L1540,306.7 L1560,284.9 L1580,258.6 L1600,242.4 L1620,239.0 L1640,248.6 L1660,269.6 L1680,298.5 L1680,900 Z" fill="url(#snow)"/>
  <path d="M-80,900 L-80,449.3 L-60,454.6 L-40,466.1 L-20,482.3 L0,487.5 L20,476.2 L40,470.3 L60,472.6 L80,482.4 L100,481.3 L120,472.4 L140,473.7 L160,486.9 L180,509.7 L200,518.3 L220,522.8 L240,535.6 L260,556.4 L280,581.5 L300,583.0 L320,579.3 L340,579.2 L360,583.1 L380,588.2 L400,565.0 L420,541.8 L440,525.3 L460,516.6 L480,511.8 L500,484.2 L520,464.7 L540,457.0 L560,460.6 L580,466.4 L600,453.8 L620,449.0 L640,453.7 L660,465.8 L680,471.3 L700,457.8 L720,448.5 L740,445.3 L760,447.0 L780,437.1 L800,413.6 L820,397.2 L840,390.8 L860,393.9 L880,386.4 L900,374.6 L920,374.9 L940,388.4 L960,412.6 L980,422.2 L1000,429.9 L1020,446.8 L1040,472.1 L1060,502.1 L1080,507.7 L1100,510.3 L1120,517.5 L1140,529.6 L1160,543.8 L1180,529.6 L1200,518.2 L1220,514.7 L1240,519.7 L1260,527.9 L1280,514.7 L1300,509.8 L1320,516.1 L1340,532.6 L1360,548.0 L1380,544.8 L1400,547.5 L1420,557.4 L1440,572.4 L1460,577.0 L1480,562.2 L1500,549.9 L1520,542.3 L1540,538.4 L1560,520.6 L1580,490.0 L1600,466.4 L1620,452.6 L1640,447.7 L1660,430.6 L1680,410.4 L1680,900 Z" fill="#7d94ad" opacity="0.82"/>
  <path d="M-80,900 L-80,579.5 L-60,580.0 L-40,581.6 L-20,584.5 L0,588.6 L20,593.6 L40,599.4 L60,605.6 L80,611.8 L100,617.7 L120,622.7 L140,626.5 L160,628.8 L180,629.2 L200,627.7 L220,624.1 L240,618.4 L260,610.9 L280,601.7 L300,591.2 L320,579.8 L340,567.9 L360,556.1 L380,544.8 L400,534.4 L420,525.3 L440,517.7 L460,511.9 L480,508.0 L500,505.9 L520,505.4 L540,506.4 L560,508.5 L580,511.4 L600,514.7 L620,518.0 L640,520.9 L660,523.1 L680,524.4 L700,524.5 L720,523.5 L740,521.4 L760,518.3 L780,514.4 L800,510.1 L820,505.7 L840,501.7 L860,498.3 L880,496.1 L900,495.3 L920,496.3 L940,499.1 L960,503.9 L980,510.5 L1000,518.9 L1020,528.8 L1040,539.9 L1060,551.6 L1080,563.7 L1100,575.6 L1120,586.8 L1140,597.0 L1160,605.7 L1180,612.6 L1200,617.7 L1220,620.7 L1240,621.8 L1260,621.1 L1280,618.8 L1300,615.2 L1320,610.7 L1340,605.7 L1360,600.7 L1380,595.9 L1400,591.8 L1420,588.6 L1440,586.5 L1460,585.6 L1480,585.8 L1500,587.1 L1520,589.2 L1540,591.8 L1560,594.6 L1580,597.1 L1600,599.1 L1620,600.1 L1640,599.8 L1660,598.0 L1680,594.4 L1680,900 Z" fill="#5c7a63" opacity="0.9"/>

  <path d="M-80,900 L-80,640.3 L-60,640.7 L-40,641.7 L-20,643.2 L0,645.4 L20,648.1 L40,651.5 L60,655.4 L80,659.8 L100,664.7 L120,669.7 L140,675.0 L160,680.2 L180,685.3 L200,690.2 L220,694.6 L240,698.4 L260,701.5 L280,703.9 L300,705.4 L320,705.9 L340,705.4 L360,704.0 L380,701.7 L400,698.4 L420,694.3 L440,689.5 L460,684.1 L480,678.2 L500,672.1 L520,665.7 L540,659.4 L560,653.2 L580,647.3 L600,641.8 L620,636.8 L640,632.5 L660,628.8 L680,625.8 L700,623.5 L720,621.9 L740,621.0 L760,620.6 L780,620.8 L800,621.3 L820,622.1 L840,623.0 L860,624.0 L880,624.8 L900,625.5 L920,625.8 L940,625.6 L960,625.0 L980,623.8 L1000,622.1 L1020,619.8 L1040,617.0 L1060,613.7 L1080,610.0 L1100,606.1 L1120,601.9 L1140,597.7 L1160,593.6 L1180,589.8 L1200,586.4 L1220,583.4 L1240,581.1 L1260,579.6 L1280,578.9 L1300,579.1 L1320,580.2 L1340,582.3 L1360,585.3 L1380,589.2 L1400,593.9 L1420,599.3 L1440,605.3 L1460,611.7 L1480,618.5 L1500,625.4 L1520,632.3 L1540,639.1 L1560,645.5 L1580,651.5 L1600,657.0 L1620,661.8 L1640,665.8 L1660,669.1 L1680,671.6 L1680,900 Z" fill="url(#hill)"/>
  <path d="M-80,663.1 L-40,662.2 L0,662.0 L40,662.7 L80,664.0 L120,666.0 L160,668.6 L200,671.6 L240,674.8 L280,678.1 L320,681.3 L360,684.2 L400,686.6 L440,688.4 L480,689.6 L520,690.0 L560,689.6 L600,688.5 L640,686.7 L680,684.3 L720,681.4 L760,678.3 L800,675.0 L840,671.8 L880,668.8 L920,666.2 L960,664.1 L1000,662.7 L1040,662.0 L1080,662.2 L1120,663.0 L1160,664.6 L1200,666.8 L1240,669.6 L1280,672.7 L1320,675.9 L1360,679.2 L1400,682.3 L1440,685.0 L1480,687.3 L1520,688.9 L1560,689.8 L1600,690.0 L1640,689.3 L1680,688.0" fill="none" stroke="#4a6b3c" stroke-opacity="0.50" stroke-width="2.5"/><path d="M-80,696.6 L-40,698.0 L0,700.0 L40,702.5 L80,705.5 L120,708.7 L160,712.0 L200,715.2 L240,718.1 L280,720.5 L320,722.4 L360,723.6 L400,724.0 L440,723.7 L480,722.6 L520,720.8 L560,718.4 L600,715.5 L640,712.4 L680,709.1 L720,705.8 L760,702.8 L800,700.2 L840,698.2 L880,696.7 L920,696.1 L960,696.1 L1000,697.0 L1040,698.6 L1080,700.8 L1120,703.5 L1160,706.6 L1200,709.8 L1240,713.1 L1280,716.2 L1320,719.0 L1360,721.2 L1400,722.9 L1440,723.8 L1480,724.0 L1520,723.4 L1560,722.0 L1600,720.0 L1640,717.5 L1680,714.5" fill="none" stroke="#4a6b3c" stroke-opacity="0.45" stroke-width="2.5"/><path d="M-80,736.5 L-40,739.4 L0,742.6 L40,745.9 L80,749.1 L120,752.0 L160,754.5 L200,756.3 L240,757.5 L280,758.0 L320,757.7 L360,756.6 L400,754.8 L440,752.4 L480,749.6 L520,746.5 L560,743.2 L600,739.9 L640,736.9 L680,734.3 L720,732.2 L760,730.8 L800,730.1 L840,730.1 L880,731.0 L920,732.5 L960,734.7 L1000,737.4 L1040,740.5 L1080,743.7 L1120,747.0 L1160,750.1 L1200,752.9 L1240,755.2 L1280,756.8 L1320,757.8 L1360,758.0 L1400,757.4 L1440,756.1 L1480,754.1 L1520,751.5 L1560,748.6 L1600,745.4 L1640,742.1 L1680,738.9" fill="none" stroke="#4a6b3c" stroke-opacity="0.40" stroke-width="2.5"/><path d="M-80,779.8 L-40,783.0 L0,785.9 L40,788.4 L80,790.3 L120,791.5 L160,792.0 L200,791.7 L240,790.6 L280,788.9 L320,786.5 L360,783.7 L400,780.6 L440,777.3 L480,774.0 L520,771.0 L560,768.4 L600,766.3 L640,764.8 L680,764.1 L720,764.1 L760,764.9 L800,766.5 L840,768.6 L880,771.3 L920,774.4 L960,777.6 L1000,780.9 L1040,784.0 L1080,786.8 L1120,789.1 L1160,790.8 L1200,791.8 L1240,792.0 L1280,791.4 L1320,790.1 L1360,788.2 L1400,785.6 L1440,782.7 L1480,779.5 L1520,776.2 L1560,773.0 L1600,770.1 L1640,767.6 L1680,765.7" fill="none" stroke="#4a6b3c" stroke-opacity="0.35" stroke-width="2.5"/><path d="M-80,822.3 L-40,824.3 L0,825.5 L40,826.0 L80,825.7 L120,824.7 L160,822.9 L200,820.6 L240,817.8 L280,814.6 L320,811.4 L360,808.1 L400,805.1 L440,802.4 L480,800.3 L520,798.8 L560,798.1 L600,798.1 L640,798.9 L680,800.4 L720,802.6 L760,805.2 L800,808.3 L840,811.5 L880,814.8 L920,817.9 L960,820.7 L1000,823.0 L1040,824.7 L1080,825.7 L1120,826.0 L1160,825.5 L1200,824.2 L1240,822.2 L1280,819.7 L1320,816.8 L1360,813.6 L1400,810.3 L1440,807.1 L1480,804.2 L1520,801.7 L1560,799.7 L1600,798.5 L1640,798.0 L1680,798.3" fill="none" stroke="#4a6b3c" stroke-opacity="0.30" stroke-width="2.5"/><path d="M-80,860.0 L-40,859.7 L0,858.7 L40,857.0 L80,854.7 L120,851.9 L160,848.7 L200,845.5 L240,842.2 L280,839.2 L320,836.5 L360,834.4 L400,832.9 L440,832.1 L480,832.1 L520,832.9 L560,834.4 L600,836.5 L640,839.1 L680,842.2 L720,845.4 L760,848.7 L800,851.8 L840,854.7 L880,857.0 L920,858.7 L960,859.7 L1000,860.0 L1040,859.5 L1080,858.2 L1120,856.3 L1160,853.8 L1200,850.9 L1240,847.7 L1280,844.4 L1320,841.2 L1360,838.2 L1400,835.7 L1440,833.8 L1480,832.5 L1520,832.0 L1560,832.3 L1600,833.3 L1640,835.0 L1680,837.3" fill="none" stroke="#4a6b3c" stroke-opacity="0.25" stroke-width="2.5"/><path d="M-80,891.1 L-40,888.8 L0,886.0 L40,882.8 L80,879.6 L120,876.3 L160,873.3 L200,870.6 L240,868.4 L280,866.9 L320,866.1 L360,866.1 L400,866.8 L440,868.3 L480,870.4 L520,873.1 L560,876.1 L600,879.3 L640,882.6 L680,885.8 L720,888.6 L760,890.9 L800,892.7 L840,893.7 L880,894.0 L920,893.5 L960,892.3 L1000,890.4 L1040,887.9 L1080,884.9 L1120,881.8 L1160,878.5 L1200,875.3 L1240,872.3 L1280,869.8 L1320,867.8 L1360,866.6 L1400,866.0 L1440,866.2 L1480,867.2 L1520,868.9 L1560,871.2 L1600,874.0 L1640,877.2 L1680,880.4" fill="none" stroke="#4a6b3c" stroke-opacity="0.20" stroke-width="2.5"/>

  <path d="M-80,900 L-80,816
    C 207,746
      421,626
      817,600
    L1680,632 L1680,900 Z" fill="url(#road)"/>
  <path d="M-80,822
    C 207,752
      421,632
      817,606
    L1680,638" fill="none" stroke="#6f6757" stroke-width="4" opacity="0.6"/>

  <path d="M-80,900 L-80,300 L-23,405
    L68,900 Z" fill="#6a5c4c" opacity="0.95"/>
  <path d="M-80,900 L-80,340 L-83,475
    L-3,900 Z" fill="#54483c"/>

  <rect width="1600" height="900" fill="#1b1206" opacity="0.14"/>
</svg>
